<svg id="icon-creation" viewBox="0 0 1024 1024" width="100%" height="100%" role="img">
  <title>creation</title>
  <path class="color-12" d="M788.48 399.36h-532.48c-11.264 0-20.48 9.216-20.48 20.48v348.16c0 11.264 9.216 20.48 20.48 20.48h532.48c11.264 0 20.48-9.216 20.48-20.48v-348.16c0-11.264-9.216-20.48-20.48-20.48z"></path>
  <path class="color-13" d="M727.040 532.48h-102.4c-11.264 0-20.48 9.216-20.48 20.48v215.040c0 11.264 9.216 20.48 20.48 20.48h102.4c11.264 0 20.48-9.216 20.48-20.48v-215.040c0-11.264-9.216-20.48-20.48-20.48z"></path>
  <path class="color-13" d="M532.48 532.48h-215.040c-11.264 0-20.48 9.216-20.48 20.48v153.6c0 11.264 9.216 20.48 20.48 20.48h215.040c11.264 0 20.48-9.216 20.48-20.48v-153.6c0-11.264-9.216-20.48-20.48-20.48z"></path>
  <path class="color-1" d="M829.44 768h-614.4c-6.144 0-10.24 4.096-10.24 10.24v10.24c0 6.144 4.096 10.24 10.24 10.24h614.4c6.144 0 10.24-4.096 10.24-10.24v-10.24c0-6.144-4.096-10.24-10.24-10.24z"></path>
  <path class="color-10" d="M665.6 660.48c0 8.483-6.877 15.36-15.36 15.36s-15.36-6.877-15.36-15.36c0-8.483 6.877-15.36 15.36-15.36s15.36 6.877 15.36 15.36z"></path>
  <path class="color-14" d="M563.2 706.56h-276.48c-6.144 0-10.24 4.096-10.24 10.24s4.096 10.24 10.24 10.24h276.48c6.144 0 10.24-4.096 10.24-10.24s-4.096-10.24-10.24-10.24z"></path>
  <path class="color-15" d="M317.44 409.6v15.36c0 36.864 29.696 66.56 66.56 66.56s66.56-29.696 66.56-66.56v-15.36h-133.12z"></path>
  <path class="color-16" d="M184.32 411.648v13.312c0 36.864 29.696 66.56 66.56 66.56s66.56-29.696 66.56-66.56v-15.36l-133.12 2.048z"></path>
  <path class="color-16" d="M716.8 391.168v33.792c0 36.864 29.696 66.56 66.56 66.56s66.56-29.696 66.56-66.56v-13.312l-133.12-20.48z"></path>
  <path class="color-15" d="M583.68 409.6v15.36c0 36.864 29.696 66.56 66.56 66.56s66.56-29.696 66.56-66.56v-15.36h-133.12z"></path>
  <path class="color-16" d="M450.56 409.6v15.36c0 36.864 29.696 66.56 66.56 66.56s66.56-29.696 66.56-66.56v-15.36h-133.12z"></path>
  <path class="color-17" d="M381.952 225.28v0h-72.704c-11.264 0-29.696-2.048-41.984 20.48l-82.944 165.888c0 0 19.456 0 30.72 0h114.688l52.224-186.368z"></path>
  <path class="color-10" d="M464.896 411.648l10.24-186.368h-104.448l-53.248 186.368z"></path>
  <path class="color-17" d="M586.752 411.648l-8.192-186.368h-113.664l-14.336 186.368z"></path>
  <path class="color-10" d="M663.552 225.28h-87.040l7.168 186.368h133.12z"></path>
  <path class="color-17" d="M849.92 411.648l-73.728-165.888c-12.288-20.48-29.696-20.48-41.984-20.48h-82.944l65.536 186.368h110.592c12.288 0 22.528 0 22.528 0z"></path>
</svg>
