<svg id="icon-travail" viewBox="0 0 1024 1024" width="100%" height="100%" role="img">
  <title>travail</title>
  <path class="color-11" d="M827.392 326.656c-15.36-15.36-49.152 26.624-76.8 27.648-26.624 2.048-56.32-51.2-50.176-75.776 10.24-32.768 75.776-45.056 74.752-57.344-1.024-14.336-49.152-20.48-84.992-14.336-35.84 5.12-69.632 38.912-69.632 57.344 1.024 44.032-3.072 46.080-11.264 75.776-8.192 28.672-234.496 231.424-253.952 248.832s-54.272 13.312-90.112 16.384c-35.84 3.072-80.896 81.92-69.632 90.112 11.264 9.216 45.056-21.504 71.68-27.648s50.176 55.296 48.128 70.656c-2.048 14.336-63.488 41.984-71.68 54.272-4.096 6.144 41.984 20.48 81.92 11.264 32.768-7.168 59.392-34.816 61.44-44.032 4.096-19.456-5.12-37.888 11.264-75.776 17.408-36.864 228.352-234.496 261.12-250.88s57.344-5.12 86.016-10.24c29.696-4.096 97.28-80.896 81.92-96.256z"></path>
  <path class="color-5" d="M763.904 384c-14.336 6.144-62.464-9.216-74.752-32.768s-18.432-35.84-19.456-63.488c-2.048-28.672 29.696-45.056 34.816-51.2s-53.248 7.168-58.368 30.72c-5.12 23.552-3.072 58.368-8.192 71.68-5.12 14.336-22.528 44.032-36.864 55.296-14.336 12.288-239.616 221.184-249.856 227.328s-30.72 10.24-44.032 7.168c-30.72-8.192-47.104 7.168-44.032 9.216 0 0 45.056 5.12 61.44 38.912 16.384 34.816 20.48 53.248 13.312 71.68-7.168 19.456-29.696 32.768-29.696 32.768s40.96-5.12 48.128-26.624c7.168-20.48 1.024-54.272 16.384-84.992 16.384-30.72 227.328-225.28 249.856-243.712 22.528-19.456 45.056-22.528 58.368-26.624 12.288-4.096 44.032 1.024 55.296 0 11.264 2.048 41.984-21.504 27.648-15.36z"></path>
  <path class="color-1" d="M744.448 711.68c5.12 5.12 6.144 17.408 6.144 17.408l69.632 68.608 6.144-17.408c0 0-56.32-61.44-52.224-120.832-6.144-21.504-65.536-21.504-103.424-57.344-38.912-35.84-84.992 16.384-52.224 51.2 32.768 35.84 33.792 82.944 57.344 103.424 57.344 0 120.832 51.2 120.832 51.2l17.408-6.144-69.632-68.608c0 0-13.312-1.024-17.408-6.144-4.096-4.096-10.24-11.264-6.144-17.408 5.12-4.096 18.432-3.072 23.552 2.048z"></path>
  <path class="color-27" d="M687.104 584.704l-351.232-361.472c-6.144-6.144-16.384-6.144-23.552 0l-74.752 74.752c-6.144 6.144-6.144 16.384 0 22.528l363.52 350.208c6.144 6.144 16.384 6.144 23.552 0l63.488-63.488c5.12-5.12 5.12-15.36-1.024-22.528z"></path>
  <path class="color-32" d="M687.104 608.256c6.144-6.144 6.144-16.384 0-22.528l-9.216-10.24c-3.072 1.024-5.12 2.048-7.168 4.096l-74.752 74.752c-2.048 2.048-3.072 5.12-4.096 7.168l10.24 9.216c6.144 6.144 16.384 6.144 23.552 0l61.44-62.464z"></path>
  <path class="color-11" d="M530.432 604.16l89.088-89.088-11.264-11.264-89.088 89.088z"></path>
  <path class="color-20" d="M542.72 615.424l88.064-88.064-11.264-12.288-89.088 89.088z"></path>
  <path class="color-11" d="M312.32 223.232l-51.2 50.176-24.576 24.576c-6.144 6.144-6.144 16.384 0 22.528l98.304-97.28c-6.144-6.144-16.384-6.144-22.528 0z"></path>
  <path class="color-20" d="M335.872 223.232v0l-98.304 97.28 11.264 11.264 98.304-97.28z"></path>
  <path class="color-11" d="M323.584 258.048l-11.264 11.264 109.568 109.568 11.264-12.288z"></path>
  <path class="color-20" d="M312.32 269.312l-11.264 11.264 109.568 109.568 11.264-11.264z"></path>
  <path class="color-21" d="M658.432 636.928l-379.904-378.88-39.936 39.936c-6.144 6.144-6.144 16.384 0 22.528l363.52 350.208c6.144 6.144 16.384 6.144 23.552 0l32.768-33.792z"></path>
</svg>
