<svg id="icon-ressources-humaines" viewBox="0 0 1024 1024" width="100%" height="100%" role="img">
  <title>ressources-humaines</title>
  <path class="color-5" d="M723.968 291.84c0 36.76-27.049 66.56-60.416 66.56s-60.416-29.8-60.416-66.56c0-36.76 27.049-66.56 60.416-66.56s60.416 29.8 60.416 66.56z"></path>
  <path class="color-5" d="M763.904 420.864c-5.12-39.936-72.704-51.2-110.592-51.2s-87.040 18.432-110.592 30.72c-18.432 9.216-63.488 48.128-70.656 71.68s20.48 33.792 30.72 30.72c10.24-3.072 80.896-20.48 80.896-20.48s0 297.984 10.24 308.224c10.24 10.24 110.592 10.24 120.832 0 5.12-5.12 8.192-51.2 9.216-94.208h-58.368c-6.144 0-10.24-4.096-10.24-10.24v-92.16c0-6.144 4.096-10.24 10.24-10.24h51.2v-20.48c0-11.264 9.216-20.48 20.48-20.48s20.48 9.216 20.48 20.48v20.48h8.192c3.072-36.864 3.072-128-2.048-162.816z"></path>
  <path class="color-5" d="M808.96 593.92h-51.2c0 11.264-9.216 20.48-20.48 20.48s-20.48-9.216-20.48-20.48h-40.96c-6.144 0-10.24 4.096-10.24 10.24v92.16c0 6.144 4.096 10.24 10.24 10.24h133.12c6.144 0 10.24-4.096 10.24-10.24v-92.16c0-6.144-4.096-10.24-10.24-10.24z"></path>
  <path class="color-5" d="M747.52 512c-11.264 0-20.48 9.216-20.48 20.48v61.44c0 11.264 9.216 20.48 20.48 20.48s20.48-9.216 20.48-20.48v-61.44c0-11.264-9.216-20.48-20.48-20.48z"></path>
  <path class="color-10" d="M368.64 291.84c0 36.76-27.508 66.56-61.44 66.56s-61.44-29.8-61.44-66.56c0-36.76 27.508-66.56 61.44-66.56s61.44 29.8 61.44 66.56z"></path>
  <path class="color-10" d="M501.76 471.040c-7.168-23.552-53.248-62.464-71.68-71.68-23.552-12.288-73.728-30.72-112.64-30.72s-107.52 12.288-112.64 51.2c-5.12 38.912-5.12 150.528 0 174.080s40.96 20.48 40.96 20.48 0 163.84 10.24 174.080c10.24 10.24 112.64 10.24 122.88 0s10.24-307.2 10.24-307.2 71.68 17.408 81.92 20.48c10.24 3.072 37.888-7.168 30.72-30.72z"></path>
</svg>
