<svg id="icon-gestion" viewBox="0 0 1024 1024" width="100%" height="100%" role="img">
  <title>gestion</title>
  <path class="color-11" d="M163.84 307.2c-6.144 0-10.24 4.096-10.24 10.24v419.84c0 6.144 4.096 10.24 10.24 10.24s10.24-4.096 10.24-10.24v-419.84c0-6.144-4.096-10.24-10.24-10.24z"></path>
  <path class="color-11" d="M819.2 727.040h-645.12c-6.144 0-10.24 4.096-10.24 10.24s4.096 10.24 10.24 10.24h645.12c6.144 0 10.24-4.096 10.24-10.24s-4.096-10.24-10.24-10.24z"></path>
  <path class="color-11" d="M203.776 310.272c-2.048-3.072-33.792-57.344-35.84-62.464-2.048-3.072-6.144-3.072-8.192 0s-33.792 58.368-36.864 62.464c-2.048 3.072 0 7.168 4.096 7.168s70.656 0 72.704 0c4.096 0 6.144-3.072 4.096-7.168z"></path>
  <path class="color-11" d="M888.832 733.184c-3.072-2.048-59.392-33.792-62.464-36.864-3.072-2.048-7.168 0-7.168 4.096s0 70.656 0 72.704c0 3.072 3.072 6.144 7.168 4.096 3.072-2.048 58.368-33.792 62.464-35.84 3.072-2.048 3.072-6.144 0-8.192z"></path>
  <path class="color-11" d="M296.96 552.96h-51.2c-17.408 0-30.72 13.312-30.72 30.72v81.92c0 17.408 13.312 30.72 30.72 30.72h51.2c17.408 0 30.72-13.312 30.72-30.72v-81.92c0-17.408-13.312-30.72-30.72-30.72z"></path>
  <path class="color-11" d="M440.32 440.32h-51.2c-17.408 0-30.72 13.312-30.72 30.72v194.56c0 17.408 13.312 30.72 30.72 30.72h51.2c17.408 0 30.72-13.312 30.72-30.72v-194.56c0-17.408-13.312-30.72-30.72-30.72z"></path>
  <path class="color-11" d="M583.68 368.64h-51.2c-17.408 0-30.72 13.312-30.72 30.72v266.24c0 17.408 13.312 30.72 30.72 30.72h51.2c17.408 0 30.72-13.312 30.72-30.72v-266.24c0-17.408-13.312-30.72-30.72-30.72z"></path>
  <path class="color-11" d="M737.28 296.96h-51.2c-17.408 0-30.72 13.312-30.72 30.72v337.92c0 17.408 13.312 30.72 30.72 30.72h51.2c17.408 0 30.72-13.312 30.72-30.72v-337.92c0-17.408-13.312-30.72-30.72-30.72z"></path>
  <path class="color-10" d="M250.405 651.588l181.018-181.018 14.481 14.481-181.018 181.018-14.481-14.481z"></path>
  <path class="color-10" d="M567.296 440.32l-93.184 99.328 15.36 13.312 92.16-98.304z"></path>
  <path class="color-10" d="M769.024 317.44l-169.984 180.224 14.336 14.336 169.984-180.224z"></path>
  <path class="color-10" d="M431.104 471.040l-13.312 13.312 71.68 68.608 11.264-13.312z"></path>
  <path class="color-10" d="M567.296 440.32l-13.312 15.36 59.392 56.32 12.288-13.312z"></path>
  <path class="color-10" d="M794.624 301.056c-4.096 1.024-65.536 17.408-70.656 18.432-3.072 1.024-5.12 5.12-2.048 7.168 3.072 3.072 49.152 49.152 51.2 51.2s6.144 2.048 8.192-2.048c1.024-3.072 17.408-64.512 18.432-69.632 1.024-3.072-2.048-6.144-5.12-5.12z"></path>
</svg>
