<svg id="icon-justice" viewBox="0 0 1024 1024" width="100%" height="100%" role="img">
  <title>justice</title>
  <path class="color-11" d="M241.664 296.96l-118.784 361.472 10.24 3.072 118.784-360.448z"></path>
  <path class="color-11" d="M274.432 299.008l-9.216 4.096 114.688 362.496 9.216-4.096z"></path>
  <path class="color-11" d="M256 296.96h10.24v368.64h-10.24v-368.64z"></path>
  <path class="color-27" d="M122.88 660.48c0 0 59.392 56.32 133.12 56.32s133.12-56.32 133.12-56.32h-266.24z"></path>
  <path class="color-1" d="M389.12 660.48c0 8.483-59.6 15.36-133.12 15.36s-133.12-6.877-133.12-15.36c0-8.483 59.6-15.36 133.12-15.36s133.12 6.877 133.12 15.36z"></path>
  <path class="color-11" d="M753.664 296.96l-118.784 361.472 10.24 3.072 118.784-360.448z"></path>
  <path class="color-11" d="M786.432 299.008l-9.216 4.096 114.688 362.496 9.216-4.096z"></path>
  <path class="color-11" d="M768 296.96h10.24v368.64h-10.24v-368.64z"></path>
  <path class="color-27" d="M634.88 660.48c0 0 59.392 56.32 133.12 56.32s133.12-56.32 133.12-56.32h-266.24z"></path>
  <path class="color-1" d="M901.12 660.48c0 8.483-59.6 15.36-133.12 15.36s-133.12-6.877-133.12-15.36c0-8.483 59.6-15.36 133.12-15.36s133.12 6.877 133.12 15.36z"></path>
  <path class="color-1" d="M522.24 163.84h-10.24l-10.24 542.72h30.72z"></path>
  <path class="color-28" d="M670.72 829.44h-317.44c-8.192 0-15.36 7.168-15.36 15.36v10.24c0 8.192 7.168 15.36 15.36 15.36h317.44c8.192 0 15.36-7.168 15.36-15.36v-10.24c0-8.192-7.168-15.36-15.36-15.36z"></path>
  <path class="color-1" d="M634.88 808.96h-245.76c-6.144 0 3.072 0-10.24 0v20.48c0 6.144 4.096 10.24 10.24 10.24h245.76c6.144 0 10.24-4.096 10.24-10.24v-20.48c-10.24 0-4.096 0-10.24 0z"></path>
  <path class="color-1" d="M512 245.76c-17.408 1.024-54.272-22.528-102.4-20.48s-120.832 56.32-143.36 61.44c-22.528 5.12-40.96 0-40.96 0s15.36 28.672 40.96 20.48c25.6-8.192 94.208-49.152 143.36-51.2s112.64 30.72 112.64 30.72 7.168-41.984-10.24-40.96z"></path>
  <path class="color-1" d="M768 285.696c-22.528-5.12-94.208-58.368-142.336-60.416s-84.992 21.504-101.376 20.48c-17.408-1.024-10.24 39.936-10.24 39.936s62.464-32.768 111.616-30.72c49.152 2.048 116.736 43.008 142.336 50.176s40.96-20.48 40.96-20.48-18.432 6.144-40.96 1.024z"></path>
  <path class="color-27" d="M532.48 624.64h-30.72c-6.144 0-10.24 4.096-10.24 10.24v143.36c0 6.144 4.096 10.24 10.24 10.24h30.72c6.144 0 10.24-4.096 10.24-10.24v-143.36c0-6.144-4.096-10.24-10.24-10.24z"></path>
  <path class="color-2" d="M512 768c-73.728 0-133.12 40.96-133.12 40.96h266.24c0 0-59.392-40.96-133.12-40.96z"></path>
</svg>
