<svg id="icon-sante" viewBox="0 0 1024 1024" width="100%" height="100%" role="img">
    <title>social</title>
    <path class="color-11" d="M227.328 267.264c0 28.843-22.006 52.224-49.152 52.224s-49.152-23.381-49.152-52.224c0-28.843 22.006-52.224 49.152-52.224s49.152 23.381 49.152 52.224z"></path>
    <path class="color-11" d="M218.112 562.176c-5.12-21.504-5.12-122.88 0-159.744 3.072-21.504 26.624-33.792 52.224-40.96-1.024-1.024-1.024-2.048-2.048-2.048-11.264-12.288-51.2-32.768-82.944-32.768-30.72 1.024-86.016 11.264-90.112 41.984s-4.096 118.784 0 137.216c4.096 18.432 32.768 16.384 32.768 16.384s0 129.024 8.192 137.216c8.192 8.192 91.136 8.192 99.328 0 3.072-3.072 5.12-36.864 6.144-78.848-9.216-1.024-20.48-6.144-23.552-18.432z"></path>
    <path class="color-11" d="M378.88 286.72c0 33.932-25.215 61.44-56.32 61.44s-56.32-27.508-56.32-61.44c0-33.932 25.215-61.44 56.32-61.44s56.32 27.508 56.32 61.44z"></path>
    <path class="color-11" d="M490.496 505.856c-6.144-21.504-53.248-98.304-65.536-112.64s-57.344-37.888-93.184-37.888c-35.84 0-98.304 11.264-102.4 47.104-5.12 35.84-5.12 137.216 0 159.744s37.888 18.432 37.888 18.432 0 149.504 9.216 159.744c9.216 9.216 102.4 9.216 112.64 0 9.216-9.216 9.216-280.576 9.216-280.576s56.32 71.68 65.536 74.752c8.192 3.072 32.768-6.144 26.624-28.672z"></path>
    <path class="color-27" d="M532.48 302.080c0 36.76-27.508 66.56-61.44 66.56s-61.44-29.8-61.44-66.56c0-36.76 27.508-66.56 61.44-66.56s61.44 29.8 61.44 66.56z"></path>
    <path class="color-27" d="M655.36 542.72c-7.168-23.552-58.368-107.52-71.68-122.88s-63.488-40.96-102.4-40.96-107.52 12.288-112.64 51.2c-5.12 38.912-5.12 150.528 0 174.080s40.96 20.48 40.96 20.48 0 163.84 10.24 174.080c10.24 10.24 112.64 10.24 122.88 0s10.24-307.2 10.24-307.2 61.44 78.848 71.68 81.92c10.24 3.072 37.888-7.168 30.72-30.72z"></path>
    <path class="color-27" d="M839.68 552.96h-92.16c-11.264 0-20.48 9.216-20.48 20.48s9.216 20.48 20.48 20.48h92.16c11.264 0 20.48-9.216 20.48-20.48s-9.216-20.48-20.48-20.48z"></path>
    <path class="color-27" d="M768 409.6c0 33.932-25.215 61.44-56.32 61.44s-56.32-27.508-56.32-61.44c0-33.932 25.215-61.44 56.32-61.44s56.32 27.508 56.32 61.44z"></path>
    <path class="color-27" d="M829.44 614.4h-112.64c-17.408 0-30.72 13.312-30.72 30.72s13.312 30.72 30.72 30.72h112.64c17.408 0 30.72-13.312 30.72-30.72s-13.312-30.72-30.72-30.72z"></path>
    <path class="color-27" d="M916.48 700.416l-53.248-72.704c-9.216-14.336-28.672-17.408-43.008-8.192s-17.408 28.672-8.192 43.008l53.248 72.704c9.216 14.336 28.672 17.408 43.008 8.192s17.408-28.672 8.192-43.008z"></path>
    <path class="color-27" d="M786.432 627.712l-16.384-121.856c-2.048-16.384-17.408-28.672-34.816-26.624l-40.96 5.12c-16.384 2.048-28.672 17.408-26.624 34.816l16.384 121.856c2.048 16.384 17.408 28.672 34.816 26.624l40.96-5.12c17.408-3.072 28.672-18.432 26.624-34.816z"></path>
    <path class="color-27" d="M814.080 665.6c3.072 9.216 5.12 19.456 5.12 29.696 0 49.152-39.936 88.064-88.064 88.064s-88.064-39.936-88.064-88.064c0-35.84 21.504-66.56 52.224-80.896l-8.192-40.96c-50.176 18.432-84.992 65.536-84.992 121.856 0 71.68 58.368 129.024 129.024 129.024s129.024-58.368 129.024-129.024c0-10.24-1.024-20.48-3.072-29.696h-43.008z"></path>
</svg>
