<svg id="icon-financement" viewBox="0 0 1024 1024" width="100%" height="100%" role="img">
  <title>financement</title>
  <path class="color-5" d="M799.744 565.248c-13.312 6.144-82.944 50.176-90.112 57.344-6.144 6.144 6.144 24.576 11.264 22.528s100.352-65.536 123.904-68.608c22.528-2.048-32.768-17.408-45.056-11.264z"></path>
  <path class="color-5" d="M756.736 543.744c-18.432 4.096-69.632 40.96-69.632 40.96l21.504 12.288c0 0 62.464-34.816 81.92-39.936 17.408-5.12-16.384-17.408-33.792-13.312z"></path>
  <path class="color-5" d="M839.68 604.16c-35.84 25.6-197.632 119.808-245.76 122.88s-124.928-22.528-112.64-30.72c12.288-8.192 99.328-5.12 122.88-10.24s74.752-28.672 81.92-40.96c7.168-12.288-3.072-23.552-10.24-30.72s-172.032-17.408-194.56-20.48c-22.528-3.072-58.368-20.48-81.92-20.48s-105.472 20.48-122.88 20.48-90.112 5.12-102.4 20.48c-12.288 15.36-12.288 138.24 10.24 143.36s150.528-3.072 194.56 10.24c44.032 13.312 179.2 83.968 225.28 71.68s266.24-176.128 286.72-204.8c20.48-28.672-15.36-56.32-51.2-30.72z"></path>
  <path class="color-3" d="M214.016 586.752c0-7.168-6.144-13.312-14.336-13.312h-41.984c-8.192 0-14.336 6.144-14.336 13.312l1.024 187.392c0 7.168 6.144 13.312 14.336 13.312h41.984c8.192 0 14.336-6.144 14.336-13.312l-1.024-187.392z"></path>
  <path class="color-3" d="M419.84 296.96c-39.936 0-71.68 32.768-71.68 72.704s31.744 72.704 71.68 72.704c39.936 0 71.68-32.768 71.68-72.704-1.024-39.936-32.768-72.704-71.68-72.704zM591.872 381.952c-46.080 0-83.968 37.888-83.968 84.992s37.888 84.992 83.968 84.992 83.968-37.888 83.968-84.992c0-46.080-37.888-84.992-83.968-84.992zM575.488 314.368c32.768 0 58.368-26.624 58.368-59.392s-26.624-60.416-58.368-60.416c-32.768 0-58.368 26.624-58.368 59.392s25.6 60.416 58.368 60.416z"></path>
  <path class="color-6" d="M617.472 482.304h-40.96c0 5.12 2.048 9.216 7.168 13.312s11.264 6.144 19.456 6.144c3.072 0 6.144 0 9.216 0s6.144-1.024 9.216-1.024l2.048 9.216c-3.072 1.024-6.144 1.024-10.24 1.024-3.072 0-7.168 0-10.24 0-13.312 0-23.552-3.072-31.744-8.192s-12.288-12.288-12.288-20.48h-12.288v-8.192h12.288v-7.168h-12.288v-8.192h12.288v-1.024c0-9.216 4.096-16.384 12.288-21.504s18.432-8.192 31.744-8.192c3.072 0 6.144 0 10.24 0 3.072 0 7.168 1.024 10.24 1.024l-2.048 9.216c-3.072-1.024-6.144-1.024-9.216-1.024s-6.144-1.024-9.216-1.024c-8.192 0-14.336 2.048-19.456 6.144s-7.168 9.216-7.168 15.36v1.024h40.96v8.192h-40.96v7.168h40.96v8.192z"></path>
  <path class="color-6" d="M441.344 381.952h-33.792c0 4.096 2.048 8.192 6.144 11.264s9.216 5.12 16.384 5.12c3.072 0 5.12 0 8.192 0s5.12-1.024 7.168-1.024l1.024 7.168c-3.072 0-5.12 1.024-8.192 1.024s-6.144 0-8.192 0c-11.264 0-19.456-2.048-26.624-7.168-7.168-4.096-10.24-10.24-10.24-16.384h-10.24v-7.168h10.24v-6.144h-10.24v-7.168h10.24v-1.024c0-7.168 3.072-13.312 10.24-18.432 6.144-4.096 15.36-7.168 26.624-7.168 3.072 0 5.12 0 8.192 0s6.144 1.024 9.216 1.024l-1.024 7.168c-2.048 0-5.12-1.024-8.192-1.024s-5.12 0-8.192 0c-7.168 0-12.288 2.048-16.384 5.12s-6.144 7.168-6.144 13.312v1.024h34.816v7.168h-34.816v6.144h34.816v7.168z"></path>
  <path class="color-6" d="M592.896 262.144h-26.624c0 3.072 1.024 6.144 4.096 9.216 3.072 2.048 7.168 4.096 13.312 4.096 2.048 0 4.096 0 6.144 0s4.096-1.024 6.144-1.024l1.024 6.144c-2.048 0-4.096 1.024-6.144 1.024s-4.096 0-7.168 0c-8.192 0-15.36-2.048-20.48-5.12s-8.192-8.192-8.192-13.312h-8.192v-7.168h8.192v-5.12h-8.192v-5.12h8.192v-1.024c0-6.144 3.072-11.264 8.192-14.336s12.288-5.12 20.48-5.12c2.048 0 4.096 0 6.144 0s4.096 0 7.168 1.024l-1.024 6.144c-2.048 0-4.096-1.024-6.144-1.024s-4.096 0-6.144 0c-5.12 0-9.216 1.024-12.288 4.096-3.072 2.048-5.12 6.144-5.12 10.24v0h27.648v6.144h-27.648v4.096h27.648v6.144z"></path>
</svg>
