<svg id="icon-papiers" viewBox="0 0 1024 1024" width="100%" height="100%" role="img">
    <title>papiers</title>
    <path class="color-11" d="M819.2 286.72h-604.16c-22.528 0-40.96 18.432-40.96 40.96v368.64c0 22.528 18.432 40.96 40.96 40.96h604.16c22.528 0 40.96-18.432 40.96-40.96v-368.64c0-22.528-18.432-40.96-40.96-40.96z"></path>
    <path class="color-27" d="M819.2 286.72h-604.16c-22.528 0-40.96 18.432-40.96 40.96v51.2h686.080v-51.2c0-22.528-18.432-40.96-40.96-40.96z"></path>
    <path class="color-22" d="M380.928 495.616c0 36.195-26.132 65.536-58.368 65.536s-58.368-29.341-58.368-65.536c0-36.195 26.132-65.536 58.368-65.536s58.368 29.341 58.368 65.536z"></path>
    <path class="color-22" d="M322.56 561.152c-59.392 0-107.52 67.584-107.52 112.64 0 2.048 53.248 2.048 112.64 2.048s102.4-1.024 102.4-2.048c0-45.056-48.128-112.64-107.52-112.64z"></path>
    <path class="color-22" d="M491.52 450.56h286.72v20.48h-286.72v-20.48z"></path>
    <path class="color-22" d="M491.52 501.76h184.32v20.48h-184.32v-20.48z"></path>
    <path class="color-22" d="M491.52 604.16h92.16v20.48h-92.16v-20.48z"></path>
    <path class="color-22" d="M491.52 552.96h225.28v20.48h-225.28v-20.48z"></path>
</svg>
