<svg id="icon-secteurs2" viewBox="0 0 1434 1024" width="100%" height="100%" role="img">
  <title>secteurs2</title>
  <path class="color-5" d="M1024 501.76c0 180.973-146.707 327.68-327.68 327.68s-327.68-146.707-327.68-327.68c0-180.973 146.707-327.68 327.68-327.68s327.68 146.707 327.68 327.68z"></path>
  <path class="color-22" d="M930.816 730.112l-239.616-233.472-261.12 196.608c59.392 81.92 156.672 136.192 266.24 136.192 92.16 0 175.104-37.888 234.496-99.328z"></path>
  <path class="color-6" d="M686.080 491.52l-258.048 197.632c2.048 3.072 4.096 5.12 6.144 8.192l267.264-203.776z"></path>
  <path class="color-10" d="M965.632 315.392c-66.56 38.912-185.344 117.76-272.384 177.152l197.632 272.384c80.896-59.392 133.12-155.648 133.12-263.168 0-69.632-21.504-134.144-58.368-186.368z"></path>
  <path class="color-6" d="M886.784 768c3.072-2.048 5.12-4.096 8.192-6.144l-194.56-268.288c99.328-68.608 207.872-139.264 268.288-175.104-2.048-3.072-4.096-5.12-6.144-8.192-93.184 55.296-276.48 181.248-276.48 181.248l200.704 276.48z"></path>
  <path class="color-23" d="M696.32 174.080c-2.048 0-3.072 0-5.12 0v319.488l302.080-130.048c-52.224-111.616-165.888-189.44-296.96-189.44z"></path>
  <path class="color-6" d="M991.232 358.4l-294.912 128v-312.32c-3.072 0-7.168 0-10.24 0v327.68l309.248-134.144c-1.024-3.072-3.072-6.144-4.096-9.216z"></path>
  <path class="color-5" d="M253.952 343.040h-143.36c-6.144 0-10.24 4.096-10.24 10.24s4.096 10.24 10.24 10.24h143.36c6.144 0 10.24-4.096 10.24-10.24s-4.096-10.24-10.24-10.24z"></path>
  <path class="color-24" d="M415.744 348.16h-91.136v10.24h91.136v-10.24z"></path>
  <path class="color-24" d="M415.744 348.16l-3.072 9.216 71.68 67.584 3.072-9.216z"></path>
  <path class="color-24" d="M327.68 353.28c0 8.483-6.877 15.36-15.36 15.36s-15.36-6.877-15.36-15.36c0-8.483 6.877-15.36 15.36-15.36s15.36 6.877 15.36 15.36z"></path>
  <path class="color-5" d="M1293.312 588.8h-143.36c-6.144 0-10.24 4.096-10.24 10.24s4.096 10.24 10.24 10.24h143.36c6.144 0 10.24-4.096 10.24-10.24s-4.096-10.24-10.24-10.24z"></path>
  <path class="color-24" d="M1014.784 593.92v10.24h91.136v-10.24h-91.136z"></path>
  <path class="color-24" d="M1016.832 600.064l1.024-5.12-71.68-36.864-2.048 9.216 71.68 36.864 1.024-4.096z"></path>
  <path class="color-24" d="M1116.16 599.040c0 8.483-6.877 15.36-15.36 15.36s-15.36-6.877-15.36-15.36c0-8.483 6.877-15.36 15.36-15.36s15.36 6.877 15.36 15.36z"></path>
  <path class="color-5" d="M1198.080 179.2h-143.36c-6.144 0-10.24 4.096-10.24 10.24s4.096 10.24 10.24 10.24h143.36c6.144 0 10.24-4.096 10.24-10.24s-4.096-10.24-10.24-10.24z"></path>
  <path class="color-24" d="M914.432 188.416l-1.024-4.096-71.68 67.584 2.048 9.216 71.68-67.584-1.024-5.12z"></path>
  <path class="color-24" d="M913.408 194.56h91.136v-10.24h-91.136v10.24z"></path>
  <path class="color-24" d="M1024 189.44c0 8.483-6.877 15.36-15.36 15.36s-15.36-6.877-15.36-15.36c0-8.483 6.877-15.36 15.36-15.36s15.36 6.877 15.36 15.36z"></path>
</svg>
