<svg id="icon-commerce" viewBox="0 0 1024 1024" width="100%" height="100%" role="img">
      <title>commerce</title>
      <path class="color-7" d="M163.84 728.064v121.856c0 11.264 9.216 20.48 20.48 20.48h665.6c11.264 0 20.48-9.216 20.48-20.48v-121.856h-706.56z"></path>
      <path class="color-9" d="M778.24 327.68h-522.24c-11.264 0-20.48 9.216-20.48 20.48v225.28c0 11.264 9.216 20.48 20.48 20.48h522.24c11.264 0 20.48-9.216 20.48-20.48v-225.28c0-11.264-9.216-20.48-20.48-20.48z"></path>
      <path class="color-10" d="M747.52 358.4h-460.8c-11.264 0-20.48 9.216-20.48 20.48v133.12c0 11.264 9.216 20.48 20.48 20.48h460.8c11.264 0 20.48-9.216 20.48-20.48v-133.12c0-11.264-9.216-20.48-20.48-20.48z"></path>
      <path class="color-9" d="M757.76 153.6h-163.84c-11.264 0-20.48 9.216-20.48 20.48v92.16c0 11.264 9.216 20.48 20.48 20.48h163.84c11.264 0 20.48-9.216 20.48-20.48v-92.16c0-11.264-9.216-20.48-20.48-20.48z"></path>
      <path class="color-10" d="M737.28 174.080h-122.88c-11.264 0-20.48 9.216-20.48 20.48v51.2c0 11.264 9.216 20.48 20.48 20.48h122.88c11.264 0 20.48-9.216 20.48-20.48v-51.2c0-11.264-9.216-20.48-20.48-20.48z"></path>
      <path class="color-9" d="M655.36 286.72h40.96v51.2h-40.96v-51.2z"></path>
      <path class="color-11" d="M808.96 583.68c-12.288-20.48-29.696-20.48-40.96-20.48h-501.76c-11.264 0-27.648 0-40.96 20.48l-61.44 143.36c-3.072 11.264 9.216 20.48 20.48 20.48h665.6c11.264 0 22.528-9.216 20.48-20.48l-61.44-143.36z"></path>
      <path class="color-6" d="M366.592 464.896h-31.744c0 5.12 2.048 10.24 5.12 13.312 4.096 4.096 8.192 6.144 14.336 6.144 3.072 0 5.12 0 8.192-1.024s5.12-1.024 7.168-2.048l1.024 14.336c-3.072 1.024-5.12 1.024-8.192 2.048-3.072 0-6.144 1.024-8.192 1.024-11.264 0-20.48-3.072-26.624-10.24s-10.24-14.336-10.24-23.552v0h-10.24v-14.336h10.24v-9.216h-10.24v-13.312h10.24v-1.024c0-9.216 3.072-17.408 10.24-24.576s15.36-10.24 26.624-10.24c3.072 0 5.12 0 8.192 1.024s5.12 1.024 9.216 2.048l-2.048 14.336c-2.048-1.024-5.12-1.024-8.192-2.048s-5.12-1.024-8.192-1.024c-6.144 0-11.264 2.048-14.336 6.144s-5.12 9.216-5.12 14.336v1.024h31.744v13.312h-31.744v9.216h31.744v14.336z"></path>
      <path class="color-7" d="M278.528 686.080h-32.768c-6.144 0-10.24 4.096-10.24 10.24v10.24c0 6.144 4.096 10.24 10.24 10.24h32.768c6.144 0 10.24-4.096 10.24-10.24v-10.24c0-6.144-5.12-10.24-10.24-10.24z"></path>
      <path class="color-7" d="M348.16 686.080h-31.744c-6.144 0-10.24 4.096-10.24 10.24v10.24c0 6.144 4.096 10.24 10.24 10.24h31.744c6.144 0 10.24-4.096 10.24-10.24v-10.24c0-6.144-4.096-10.24-10.24-10.24z"></path>
      <path class="color-7" d="M418.816 686.080h-32.768c-6.144 0-10.24 4.096-10.24 10.24v10.24c0 6.144 4.096 10.24 10.24 10.24h32.768c6.144 0 10.24-4.096 10.24-10.24v-10.24c0-6.144-5.12-10.24-10.24-10.24z"></path>
      <path class="color-7" d="M497.664 686.080h-32.768c-6.144 0-10.24 4.096-10.24 10.24v10.24c0 6.144 4.096 10.24 10.24 10.24h32.768c6.144 0 10.24-4.096 10.24-10.24v-10.24c0-6.144-5.12-10.24-10.24-10.24z"></path>
      <path class="color-7" d="M567.296 686.080h-31.744c-6.144 0-10.24 4.096-10.24 10.24v10.24c0 6.144 4.096 10.24 10.24 10.24h31.744c6.144 0 10.24-4.096 10.24-10.24v-10.24c0-6.144-4.096-10.24-10.24-10.24z"></path>
      <path class="color-7" d="M637.952 686.080h-32.768c-6.144 0-10.24 4.096-10.24 10.24v10.24c0 6.144 4.096 10.24 10.24 10.24h32.768c6.144 0 10.24-4.096 10.24-10.24v-10.24c0-6.144-5.12-10.24-10.24-10.24z"></path>
      <path class="color-7" d="M707.584 686.080h-31.744c-6.144 0-10.24 4.096-10.24 10.24v10.24c0 6.144 4.096 10.24 10.24 10.24h31.744c6.144 0 10.24-4.096 10.24-10.24v-10.24c0-6.144-4.096-10.24-10.24-10.24z"></path>
      <path class="color-7" d="M778.24 686.080h-32.768c-6.144 0-10.24 4.096-10.24 10.24v10.24c0 6.144 4.096 10.24 10.24 10.24h32.768c6.144 0 10.24-4.096 10.24-10.24v-10.24c0-6.144-4.096-10.24-10.24-10.24z"></path>
      <path class="color-7" d="M294.912 634.88h-28.672c-6.144 0-10.24 4.096-10.24 10.24v10.24c0 6.144 4.096 10.24 10.24 10.24h28.672c6.144 0 10.24-4.096 10.24-10.24v-10.24c0-6.144-5.12-10.24-10.24-10.24z"></path>
      <path class="color-7" d="M359.424 634.88h-28.672c-6.144 0-10.24 4.096-10.24 10.24v10.24c0 6.144 4.096 10.24 10.24 10.24h28.672c6.144 0 10.24-4.096 10.24-10.24v-10.24c0-6.144-4.096-10.24-10.24-10.24z"></path>
      <path class="color-7" d="M424.96 634.88h-28.672c-6.144 0-10.24 4.096-10.24 10.24v10.24c0 6.144 4.096 10.24 10.24 10.24h28.672c6.144 0 10.24-4.096 10.24-10.24v-10.24c0-6.144-5.12-10.24-10.24-10.24z"></path>
      <path class="color-7" d="M497.664 634.88h-28.672c-6.144 0-10.24 4.096-10.24 10.24v10.24c0 6.144 4.096 10.24 10.24 10.24h28.672c6.144 0 10.24-4.096 10.24-10.24v-10.24c0-6.144-4.096-10.24-10.24-10.24z"></path>
      <path class="color-7" d="M562.176 634.88h-28.672c-6.144 0-10.24 4.096-10.24 10.24v10.24c0 6.144 4.096 10.24 10.24 10.24h28.672c6.144 0 10.24-4.096 10.24-10.24v-10.24c0-6.144-4.096-10.24-10.24-10.24z"></path>
      <path class="color-7" d="M627.712 634.88h-28.672c-6.144 0-10.24 4.096-10.24 10.24v10.24c0 6.144 4.096 10.24 10.24 10.24h28.672c6.144 0 10.24-4.096 10.24-10.24v-10.24c0-6.144-4.096-10.24-10.24-10.24z"></path>
      <path class="color-7" d="M692.224 634.88h-28.672c-6.144 0-10.24 4.096-10.24 10.24v10.24c0 6.144 4.096 10.24 10.24 10.24h28.672c6.144 0 10.24-4.096 10.24-10.24v-10.24c0-6.144-4.096-10.24-10.24-10.24z"></path>
      <path class="color-7" d="M757.76 634.88h-28.672c-6.144 0-10.24 4.096-10.24 10.24v10.24c0 6.144 4.096 10.24 10.24 10.24h28.672c6.144 0 10.24-4.096 10.24-10.24v-10.24c0-6.144-4.096-10.24-10.24-10.24z"></path>
      <path class="color-7" d="M320.512 583.68h-23.552c-6.144 0-10.24 4.096-10.24 10.24v10.24c0 6.144 4.096 10.24 10.24 10.24h23.552c6.144 0 10.24-4.096 10.24-10.24v-10.24c0-6.144-4.096-10.24-10.24-10.24z"></path>
      <path class="color-7" d="M378.88 583.68h-23.552c-6.144 0-10.24 4.096-10.24 10.24v10.24c0 6.144 4.096 10.24 10.24 10.24h23.552c6.144 0 10.24-4.096 10.24-10.24v-10.24c0-6.144-4.096-10.24-10.24-10.24z"></path>
      <path class="color-7" d="M437.248 583.68h-23.552c-6.144 0-10.24 4.096-10.24 10.24v10.24c0 6.144 4.096 10.24 10.24 10.24h23.552c6.144 0 10.24-4.096 10.24-10.24v-10.24c0-6.144-4.096-10.24-10.24-10.24z"></path>
      <path class="color-7" d="M503.808 583.68h-23.552c-6.144 0-10.24 4.096-10.24 10.24v10.24c0 6.144 4.096 10.24 10.24 10.24h23.552c6.144 0 10.24-4.096 10.24-10.24v-10.24c0-6.144-5.12-10.24-10.24-10.24z"></path>
      <path class="color-7" d="M561.152 583.68h-23.552c-6.144 0-10.24 4.096-10.24 10.24v10.24c0 6.144 4.096 10.24 10.24 10.24h23.552c6.144 0 10.24-4.096 10.24-10.24v-10.24c0-6.144-4.096-10.24-10.24-10.24z"></path>
      <path class="color-7" d="M620.544 583.68h-23.552c-6.144 0-10.24 4.096-10.24 10.24v10.24c0 6.144 4.096 10.24 10.24 10.24h23.552c6.144 0 10.24-4.096 10.24-10.24v-10.24c0-6.144-5.12-10.24-10.24-10.24z"></path>
      <path class="color-7" d="M678.912 583.68h-23.552c-6.144 0-10.24 4.096-10.24 10.24v10.24c0 6.144 4.096 10.24 10.24 10.24h23.552c6.144 0 10.24-4.096 10.24-10.24v-10.24c-1.024-6.144-5.12-10.24-10.24-10.24z"></path>
      <path class="color-7" d="M737.28 583.68h-23.552c-6.144 0-10.24 4.096-10.24 10.24v10.24c0 6.144 4.096 10.24 10.24 10.24h23.552c6.144 0 10.24-4.096 10.24-10.24v-10.24c0-6.144-4.096-10.24-10.24-10.24z"></path>
    </svg>
