<svg id="icon-transports" viewBox="0 0 1024 1024" width="100%" height="100%" role="img">
  <title>transports</title>
  <path class="color-1" d="M980.992 621.568c-1.024-12.288 1.024-103.424-22.528-132.096-15.36-18.432-219.136-36.864-229.376-40.96-10.24-3.072-154.624-114.688-169.984-121.856s-33.792-12.288-140.288-10.24c-106.496 3.072-249.856 93.184-273.408 101.376s-67.584 14.336-81.92 20.48c-14.336 6.144-26.624 73.728-29.696 101.376s-5.12 78.848 0 91.136c5.12 12.288 58.368 36.864 96.256 40.96 37.888 3.072 833.536 6.144 850.944 0 4.096-1.024 7.168-7.168 7.168-20.48 1.024-13.312-6.144-17.408-7.168-29.696z"></path>
  <path class="color-2" d="M501.76 491.52c126.976 3.072 345.088 16.384 468.992 24.576-3.072-11.264-7.168-20.48-12.288-26.624-15.36-18.432-219.136-36.864-229.376-40.96-10.24-3.072-154.624-114.688-169.984-121.856s-33.792-12.288-140.288-10.24c-106.496 3.072-249.856 93.184-273.408 101.376s-67.584 14.336-81.92 20.48c-4.096 2.048-9.216 10.24-12.288 20.48 120.832 15.36 333.824 29.696 450.56 32.768z"></path>
  <path class="color-29" d="M890.88 655.36c0 62.209-50.431 112.64-112.64 112.64s-112.64-50.431-112.64-112.64c0-62.209 50.431-112.64 112.64-112.64s112.64 50.431 112.64 112.64z"></path>
  <path class="color-29" d="M378.88 655.36c0 62.209-50.431 112.64-112.64 112.64s-112.64-50.431-112.64-112.64c0-62.209 50.431-112.64 112.64-112.64s112.64 50.431 112.64 112.64z"></path>
  <path class="color-30" d="M975.872 537.6c-3.072-19.456-8.192-37.888-16.384-49.152-5.12-6.144-31.744-12.288-65.536-18.432l33.792 64.512 48.128 3.072z"></path>
  <path class="color-31" d="M358.4 655.36c0 50.899-41.261 92.16-92.16 92.16s-92.16-41.261-92.16-92.16c0-50.899 41.261-92.16 92.16-92.16s92.16 41.261 92.16 92.16z"></path>
  <path class="color-2" d="M327.68 655.36c0 33.932-27.508 61.44-61.44 61.44s-61.44-27.508-61.44-61.44c0-33.932 27.508-61.44 61.44-61.44s61.44 27.508 61.44 61.44z"></path>
  <path class="color-1" d="M256 634.88v-39.936c-15.36 2.048-27.648 10.24-36.864 21.504l36.864 18.432z"></path>
  <path class="color-1" d="M276.48 594.944v39.936l36.864-18.432c-9.216-11.264-21.504-19.456-36.864-21.504z"></path>
  <path class="color-1" d="M314.368 693.248c8.192-10.24 13.312-23.552 13.312-37.888 0-2.048 0-5.12 0-7.168l-51.2 7.168 37.888 37.888z"></path>
  <path class="color-1" d="M266.24 716.8c8.192 0 16.384-2.048 23.552-5.12l-23.552-35.84-23.552 35.84c7.168 3.072 15.36 5.12 23.552 5.12z"></path>
  <path class="color-1" d="M206.848 641.024c-1.024 5.12-2.048 9.216-2.048 14.336 0 14.336 5.12 27.648 13.312 37.888l37.888-37.888-49.152-14.336z"></path>
  <path class="color-31" d="M870.4 655.36c0 50.899-41.261 92.16-92.16 92.16s-92.16-41.261-92.16-92.16c0-50.899 41.261-92.16 92.16-92.16s92.16 41.261 92.16 92.16z"></path>
  <path class="color-2" d="M839.68 655.36c0 33.932-27.508 61.44-61.44 61.44s-61.44-27.508-61.44-61.44c0-33.932 27.508-61.44 61.44-61.44s61.44 27.508 61.44 61.44z"></path>
  <path class="color-1" d="M768 634.88v-39.936c-15.36 2.048-27.648 10.24-36.864 21.504l36.864 18.432z"></path>
  <path class="color-1" d="M788.48 594.944v39.936l36.864-18.432c-9.216-11.264-21.504-19.456-36.864-21.504z"></path>
  <path class="color-1" d="M826.368 693.248c8.192-10.24 13.312-23.552 13.312-37.888 0-2.048 0-5.12 0-7.168l-51.2 7.168 37.888 37.888z"></path>
  <path class="color-1" d="M778.24 716.8c8.192 0 16.384-2.048 23.552-5.12l-23.552-35.84-23.552 35.84c7.168 3.072 15.36 5.12 23.552 5.12z"></path>
  <path class="color-1" d="M718.848 641.024c-1.024 5.12-2.048 9.216-2.048 14.336 0 14.336 5.12 27.648 13.312 37.888l37.888-37.888-49.152-14.336z"></path>
  <path class="color-27" d="M215.040 419.84c29.696 10.24 192.512 18.432 192.512 18.432v-90.112c0 0-133.12 12.288-192.512 71.68z"></path>
  <path class="color-27" d="M541.696 358.4c-49.152-15.36-108.544-10.24-108.544-10.24s0 86.016 0 90.112c0 4.096 242.688 12.288 242.688 12.288s-83.968-76.8-134.144-92.16z"></path>
</svg>
