<svg id="icon-etrangers" viewBox="0 0 1024 1024" width="100%" height="100%" role="img">
  <title>etrangers</title>
  <path class="color-1" d="M542.72 686.080h-20.48c-6.144 0-10.24 4.096-10.24 10.24v133.12c0 6.144 4.096 10.24 10.24 10.24h20.48c6.144 0 10.24-4.096 10.24-10.24v-133.12c0-6.144-4.096-10.24-10.24-10.24z"></path>
  <path class="color-28" d="M691.2 798.72h-317.44c-8.192 0-15.36 7.168-15.36 15.36v10.24c0 8.192 7.168 15.36 15.36 15.36h317.44c8.192 0 15.36-7.168 15.36-15.36v-10.24c0-8.192-7.168-15.36-15.36-15.36z"></path>
  <path class="color-1" d="M399.36 778.24v20.48c0 6.144 4.096 10.24 10.24 10.24h245.76c6.144 0 10.24-4.096 10.24-10.24v-20.48h-266.24z"></path>
  <path class="color-2" d="M532.48 737.28c-73.728 0-133.12 40.96-133.12 40.96h266.24c0 0-59.392-40.96-133.12-40.96z"></path>
  <path class="color-1" d="M718.848 631.808l-2.048-4.096c-1.024-1.024-8.192-10.24-15.36-7.168-6.144 4.096-15.36 11.264-15.36 11.264-40.96 27.648-88.064 44.032-138.24 46.080-150.528 9.216-281.6-108.544-285.696-256-2.048-89.088 40.96-172.032 114.688-223.232 0 0 15.36-10.24 17.408-14.336s-2.048-11.264-3.072-12.288l-2.048-3.072c-3.072-4.096-8.192-5.12-12.288-2.048l-4.096 2.048c-96.256 59.392-148.48 165.888-136.192 278.528 15.36 140.288 135.168 250.88 279.552 258.048 71.68 3.072 140.288-17.408 196.608-59.392l3.072-3.072c5.12-3.072 6.144-7.168 3.072-11.264z"></path>
  <path class="color-1" d="M709.632 620.544l-318.464-444.416c-4.096-5.12-10.24-6.144-15.36-3.072l-8.192 6.144c-4.096 3.072-5.12 10.24-2.048 15.36l318.464 444.416c4.096 5.12 10.24 6.144 15.36 3.072l8.192-6.144c5.12-4.096 6.144-10.24 2.048-15.36z"></path>
  <path class="color-11" d="M786.432 400.384c-4.096-135.168-118.784-241.664-257.024-236.544 0 0-1.024 0-1.024 0-137.216 5.12-245.76 119.808-241.664 254.976 4.096 136.192 119.808 241.664 258.048 236.544 0 0 1.024 0 1.024 0 137.216-6.144 245.76-119.808 240.64-254.976z"></path>
  <path class="color-27" d="M686.080 237.568l4.096 9.216 10.24-4.096 2.048 12.288h-3.072l-8.192-1.024-9.216 2.048-9.216 13.312-13.312 2.048-2.048 11.264 5.12 1.024-1.024 7.168-13.312-2.048-12.288 3.072-1.024 5.12 2.048 13.312 7.168 3.072 11.264-1.024 8.192-1.024 2.048-6.144 12.288-16.384 8.192 1.024 8.192-7.168 2.048 5.12 20.48 12.288-2.048 3.072h-9.216l3.072 5.12 5.12 1.024 6.144-3.072v-7.168l3.072-1.024-2.048-2.048-14.336-7.168-4.096-9.216h11.264l4.096 3.072 9.216 7.168 1.024 9.216 10.24 10.24 3.072-14.336 6.144-4.096 2.048 11.264 7.168 7.168 10.24-1.024c-16.384-35.84-39.936-66.56-70.656-91.136l-1.024 2.048-12.288 6.144-5.12 5.12 1.024 6.144 7.168 1.024z"></path>
  <path class="color-27" d="M774.144 329.728l-18.432 1.024-12.288-8.192-13.312 2.048v8.192h-4.096l-4.096-3.072-22.528-5.12v-14.336l-28.672 3.072-8.192 5.12h-16.384l-13.312 8.192v14.336l-27.648 20.48 3.072 8.192h6.144l-1.024 8.192-6.144 1.024v21.504l24.576 25.6h10.24l1.024-2.048 18.432-1.024 5.12-5.12h10.24l6.144 5.12 16.384 1.024-1.024 20.48 18.432 29.696-9.216 17.408 1.024 8.192 7.168 7.168 1.024 19.456 10.24 12.288 1.024 16.384h7.168c33.792-43.008 52.224-98.304 50.176-156.672 1.024-22.528-4.096-46.080-11.264-68.608z"></path>
  <path class="color-27" d="M567.296 451.584l-22.528 1.024-6.144-2.048-11.264-4.096-1.024-12.288-6.144-10.24h-16.384l-9.216-14.336-8.192-4.096v4.096l-15.36 1.024-6.144-7.168-15.36-2.048-12.288 15.36-20.48-3.072-2.048-22.528h-15.36l5.12-11.264-2.048-6.144-18.432 13.312-12.288-1.024-5.12-9.216 2.048-9.216 6.144-12.288 15.36-8.192 29.696-1.024v9.216l11.264 4.096-1.024-15.36 7.168-8.192 15.36-10.24 1.024-7.168 15.36-16.384 16.384-9.216-1.024-1.024 11.264-11.264 4.096 1.024 2.048 2.048 4.096-5.12h-4.096l-5.12-2.048v-4.096l2.048-2.048h5.12l3.072 1.024 2.048 4.096h4.096l8.192-1.024 1.024-4.096 4.096 1.024v4.096l-4.096 1.024 1.024 4.096 10.24 3.072 4.096 1.024c0 0 0 0 0 0h3.072v-6.144l-8.192-3.072v-6.144l5.12-2.048v-8.192l-5.12-3.072-4.096-2.048-1.024-14.336-13.312 6.144h-5.12l1.024-11.264-18.432-3.072-7.168 6.144 1.024 16.384-14.336 5.12-5.12 11.264-5.12 1.024v-14.336l-13.312-1.024-6.144-4.096-3.072-9.216 22.528-13.312 10.24-4.096 1.024 7.168 6.144-1.024v-4.096l6.144-1.024v-1.024h-1.024l-1.024-4.096 8.192-1.024 6.144-6.144 16.384-3.072 7.168 6.144-18.432 10.24 24.576 5.12 3.072-8.192h10.24l3.072-7.168-7.168-2.048v-9.216l-5.12-2.048-19.456-7.168-16.384 2.048-9.216 5.12 1.024 11.264h-9.216l-2.048-6.144 9.216-8.192h-16.384l-5.12 2.048-2.048 4.096 6.144 1.024-1.024 6.144-10.24 1.024-2.048 4.096-15.36 1.024c0 0-1.024-8.192-1.024-8.192-1.024 0 12.288-1.024 12.288-1.024l9.216-9.216-5.12-2.048-6.144 7.168h-11.264l-7.168-9.216-14.336 1.024-15.36 10.24 13.312-1.024 1.024 4.096-3.072 3.072h15.36l2.048 5.12h-17.408l-1.024-4.096-9.216-1.024-6.144-3.072h-5.12c-39.936 29.696-70.656 69.632-88.064 116.736v4.096l10.24 4.096 1.024 19.456 10.24 16.384 8.192 1.024 1.024-6.144-10.24-14.336-2.048-14.336h6.144l3.072 14.336 14.336 19.456-3.072 6.144 9.216 13.312 22.528 4.096v-3.072l9.216 1.024-2.048 8.192 7.168 1.024 11.264 2.048 15.36 16.384 19.456 1.024 2.048 15.36-13.312 9.216v14.336l-1.024 8.192 19.456 22.528 2.048 8.192c0 0 7.168 2.048 8.192 2.048s16.384 10.24 16.384 10.24l1.024 41.984 5.12 1.024-3.072 19.456 9.216 11.264-1.024 19.456 12.288 19.456 15.36 12.288h15.36l1.024-5.12-12.288-8.192v-4.096l3.072-6.144v-6.144h-7.168l-4.096-4.096 6.144-6.144 1.024-4.096-7.168-2.048v-4.096l10.24-2.048 14.336-7.168 5.12-9.216 11.264-15.36 3.072-5.12-4.096-15.36 4.096-8.192h14.336l9.216-8.192 2.048-29.696 10.24-14.336 2.048-9.216-10.24-3.072-5.12-9.216z"></path>
  <path class="color-27" d="M652.288 249.856l5.12 3.072 1.024 4.096-6.144 1.024-1.024 8.192h8.192l9.216-1.024 5.12-6.144-6.144-2.048-3.072-3.072-4.096-7.168-2.048-9.216-8.192 2.048-3.072 3.072 1.024 4.096z"></path>
  <path class="color-27" d="M640 264.192l10.24-8.192 1.024-5.12-5.12-2.048-7.168 2.048-4.096 8.192v5.12z"></path>
  <path class="color-27" d="M492.544 294.912h5.12l1.024-4.096-3.072-2.048-3.072 3.072z"></path>
  <path class="color-27" d="M509.952 287.744h-7.168v4.096h2.048c0 0 0 1.024 0 2.048l4.096-1.024 3.072-2.048 1.024-3.072h4.096l1.024-3.072-3.072-1.024h-3.072l-2.048 4.096z"></path>
</svg>
