<svg id="icon-logement" viewBox="0 0 1024 1024" width="100%" height="100%" role="img">
  <title>logement</title>
  <path class="color-11" d="M788.48 440.32h-542.72c-11.264 0-20.48 9.216-20.48 20.48v312.32c0 11.264 9.216 20.48 20.48 20.48h542.72c11.264 0 20.48-9.216 20.48-20.48v-312.32c0-11.264-9.216-20.48-20.48-20.48z"></path>
  <path class="color-27" d="M778.24 256c-7.168-16.384-29.696-20.48-40.96-20.48h-440.32c-11.264 0-30.72 2.048-40.96 20.48l-71.68 204.8c0 11.264 9.216 20.48 20.48 20.48h624.64c11.264 0 20.48-9.216 20.48-20.48l-71.68-204.8z"></path>
  <path class="color-13" d="M512 348.16l-122.88 122.88v296.96c0 11.264 9.216 20.48 20.48 20.48h204.8c11.264 0 20.48-9.216 20.48-20.48v-296.96l-122.88-122.88z"></path>
  <path class="color-27" d="M573.44 461.824l-61.44-62.464-61.44 62.464c0 0-8.192 9.216 10.24 9.216h102.4c15.36 0 10.24-9.216 10.24-9.216z"></path>
  <path class="color-27" d="M747.52 563.2h-61.44c-6.144 0-10.24 4.096-10.24 10.24v92.16c0 6.144 4.096 10.24 10.24 10.24h61.44c6.144 0 10.24-4.096 10.24-10.24v-92.16c0-6.144-4.096-10.24-10.24-10.24z"></path>
  <path class="color-27" d="M337.92 563.2h-61.44c-6.144 0-10.24 4.096-10.24 10.24v92.16c0 6.144 4.096 10.24 10.24 10.24h61.44c6.144 0 10.24-4.096 10.24-10.24v-92.16c0-6.144-4.096-10.24-10.24-10.24z"></path>
  <path class="color-27" d="M552.96 563.2h-81.92c-11.264 0-20.48 9.216-20.48 20.48v184.32c0 11.264 9.216 20.48 20.48 20.48h81.92c11.264 0 20.48-9.216 20.48-20.48v-184.32c0-11.264-9.216-20.48-20.48-20.48z"></path>
  <path class="color-1" d="M829.44 768h-624.64c-6.144 0-10.24 4.096-10.24 10.24v10.24c0 6.144 4.096 10.24 10.24 10.24h624.64c6.144 0 10.24-4.096 10.24-10.24v-10.24c0-6.144-4.096-10.24-10.24-10.24z"></path>
  <path class="color-14" d="M757.76 665.6h-81.92c-6.144 0-10.24 4.096-10.24 10.24s4.096 10.24 10.24 10.24h81.92c6.144 0 10.24-4.096 10.24-10.24s-4.096-10.24-10.24-10.24z"></path>
  <path class="color-14" d="M348.16 665.6h-81.92c-6.144 0-10.24 4.096-10.24 10.24s4.096 10.24 10.24 10.24h81.92c6.144 0 10.24-4.096 10.24-10.24s-4.096-10.24-10.24-10.24z"></path>
</svg>
