<svg id="icon-secteurs" viewBox="0 0 1024 1024" width="100%" height="100%" role="img">
    <title>secteurs</title>
    <path class="color-5" d="M198.656 430.080c-3.072-35.84-27.648-64.512-55.296-63.488-28.672 1.024-49.152 31.744-46.080 67.584s27.648 64.512 55.296 63.488c27.648-1.024 48.128-31.744 46.080-67.584z"></path>
    <path class="color-5" d="M358.4 395.264c-2.048-32.768-26.624-58.368-53.248-56.32-26.624 1.024-47.104 28.672-44.032 61.44 2.048 32.768 26.624 58.368 53.248 56.32 26.624-1.024 47.104-28.672 44.032-61.44z"></path>
    <path class="color-5" d="M738.304 338.944c-26.624-1.024-51.2 24.576-53.248 56.32-2.048 32.768 17.408 59.392 44.032 61.44 26.624 1.024 51.2-24.576 53.248-56.32 3.072-32.768-17.408-60.416-44.032-61.44z"></path>
    <path class="color-5" d="M900.096 366.592c-28.672-1.024-54.272 26.624-57.344 63.488s18.432 67.584 47.104 68.608c28.672 1.024 54.272-26.624 57.344-63.488s-18.432-67.584-47.104-68.608z"></path>
    <path class="color-3" d="M523.264 266.24c-34.816-1.024-63.488 28.672-64.512 65.536s26.624 67.584 60.416 68.608c34.816 1.024 63.488-28.672 64.512-65.536s-25.6-67.584-60.416-68.608z"></path>
    <path class="color-3" d="M636.928 594.944c0-44.032-2.048-105.472-6.144-132.096-5.12-35.84-61.44-48.128-101.376-49.152v-1.024c-39.936-1.024-110.592 9.216-116.736 49.152-4.096 27.648-7.168 91.136-7.168 134.144h231.424z"></path>
    <path class="color-5" d="M219.136 616.448c1.024-1.024 3.072-1.024 4.096-2.048-3.072-36.864-10.24-77.824-13.312-87.040-5.12-15.36-36.864-26.624-40.96-19.456s8.192 27.648 0 29.696c-8.192 2.048-24.576-28.672-40.96-29.696s-31.744 16.384-40.96 39.936c-7.168 17.408-9.216 79.872-5.12 117.76l137.216-49.152z"></path>
    <path class="color-5" d="M293.888 594.944h89.088c3.072-34.816-9.216-100.352-13.312-111.616-5.12-13.312-35.84-23.552-39.936-17.408s7.168 24.576 0 26.624c-7.168 2.048-23.552-25.6-39.936-26.624s-30.72 14.336-39.936 35.84c-6.144 15.36-8.192 69.632-5.12 103.424 20.48-5.12 41.984-10.24 49.152-10.24z"></path>
    <path class="color-5" d="M740.352 594.944c9.216 0 34.816 7.168 56.32 14.336 4.096-34.816 2.048-91.136-5.12-107.52-8.192-21.504-23.552-36.864-39.936-35.84s-31.744 29.696-39.936 26.624c-7.168-2.048 4.096-20.48 0-26.624-4.096-7.168-34.816 4.096-39.936 17.408-4.096 11.264-15.36 76.8-13.312 111.616h81.92z"></path>
    <path class="color-5" d="M962.56 669.696c4.096-38.912 2.048-102.4-5.12-120.832-9.216-23.552-24.576-41.984-41.984-40.96s-33.792 32.768-41.984 30.72c-8.192-2.048 4.096-22.528 0-30.72-4.096-7.168-36.864 4.096-41.984 19.456-3.072 9.216-11.264 52.224-13.312 89.088l144.384 53.248z"></path>
    <path class="color-8" d="M48.128 713.728v23.552c0 17.408 13.312 30.72 30.72 30.72h879.616c17.408 0 30.72-13.312 30.72-30.72v-23.552z"></path>
    <path class="color-4" d="M964.608 688.128l-149.504-53.248c-21.504-9.216-62.464-21.504-74.752-21.504h-446.464c-12.288 0-56.32 12.288-74.752 21.504l-149.504 53.248c-16.384 9.216-49.152 39.936 21.504 43.008h851.968c73.728 0 38.912-32.768 21.504-43.008z"></path>
</svg>
