<svg id="icon-loisirs" viewBox="0 0 1024 1024" width="100%" height="100%" role="img">
  <title>loisirs</title>
  <path class="color-11" d="M424.96 747.52c-149.504 0-271.36 36.864-271.36 81.92 62.464 19.456 509.952 8.192 542.72 0 0-45.056-121.856-81.92-271.36-81.92z"></path>
  <path class="color-1" d="M572.416 411.648c-76.8 70.656-156.672 273.408-152.576 329.728 17.408 65.536 70.656 66.56 96.256 31.744-32.768-87.040 57.344-283.648 100.352-320.512 44.032-37.888 32.768-110.592-44.032-40.96z"></path>
  <path class="color-11" d="M556.032 492.544c-4.096-2.048-9.216-1.024-11.264 2.048-2.048 4.096-1.024 9.216 2.048 11.264l22.528 14.336c3.072-5.12 5.12-10.24 8.192-14.336l-21.504-13.312z"></path>
  <path class="color-11" d="M510.976 569.344c-4.096-2.048-9.216-1.024-11.264 2.048-2.048 4.096-1.024 9.216 2.048 11.264l32.768 20.48c2.048-5.12 4.096-10.24 6.144-16.384l-29.696-17.408z"></path>
  <path class="color-11" d="M479.232 651.264c-4.096-2.048-9.216-1.024-11.264 3.072s-1.024 9.216 3.072 11.264l40.96 22.528c1.024-6.144 2.048-11.264 3.072-17.408l-35.84-19.456z"></path>
  <path class="color-27" d="M924.672 533.504c-13.312-74.752-177.152-161.792-177.152-161.792s9.216-59.392 114.688-82.944c-71.68-50.176-211.968 30.72-205.824 18.432 6.144-11.264-10.24-112.64-64.512-128 34.816 75.776 17.408 103.424 17.408 103.424s-161.792-69.632-219.136 0c86.016-18.432 163.84 59.392 159.744 58.368s-145.408-7.168-191.488 119.808c111.616-98.304 194.56-34.816 194.56-34.816s143.36 2.048 163.84 219.136c60.416-82.944-12.288-212.992-12.288-212.992s103.424 12.288 220.16 101.376z"></path>
  <path class="color-1" d="M297.984 584.704c-41.984-41.984-50.176 0-26.624 22.528 24.576 22.528 70.656 138.24 49.152 187.392 14.336 20.48 45.056 21.504 56.32-15.36 4.096-32.768-36.864-151.552-78.848-194.56z"></path>
  <path class="color-11" d="M311.296 633.856c-1.024-2.048-4.096-3.072-6.144-2.048l-12.288 7.168c1.024 3.072 3.072 6.144 4.096 8.192l13.312-8.192c2.048 0 2.048-3.072 1.024-5.12z"></path>
  <path class="color-11" d="M328.704 677.888l-17.408 10.24c1.024 3.072 2.048 6.144 3.072 9.216l19.456-11.264c2.048-1.024 3.072-4.096 2.048-6.144s-4.096-4.096-7.168-2.048z"></path>
  <path class="color-11" d="M345.088 726.016l-21.504 10.24c1.024 3.072 1.024 7.168 1.024 10.24l24.576-11.264c2.048-1.024 3.072-4.096 2.048-6.144-1.024-3.072-4.096-4.096-6.144-3.072z"></path>
  <path class="color-27" d="M312.32 544.768c-2.048 0 44.032-41.984 93.184-29.696-31.744-40.96-125.952-5.12-125.952-5.12s-9.216-16.384 13.312-59.392c-31.744 7.168-44.032 65.536-39.936 71.68 3.072 7.168-74.752-43.008-117.76-16.384 59.392 16.384 63.488 51.2 63.488 51.2s-96.256 46.080-106.496 89.088c69.632-48.128 129.024-52.224 129.024-52.224s-55.296 97.28-22.528 147.456c17.408-125.952 109.568-147.456 109.568-147.456s65.536-32.768 120.832 45.056c14.336-87.040-113.664-94.208-116.736-94.208z"></path>
</svg>
