<svg id="icon-famille" viewBox="0 0 1024 1024" width="100%" height="100%" role="img">
    <title>famille</title>
    <path class="color-27" d="M455.68 330.752c0 69.561-55.932 125.952-124.928 125.952s-124.928-56.391-124.928-125.952c0-69.561 55.932-125.952 124.928-125.952s124.928 56.391 124.928 125.952z"></path>
    <path class="color-27" d="M465.92 504.832c-29.696-37.888-72.704-65.536-135.168-65.536-178.176 0-197.632 217.088-197.632 303.104 0 5.12 80.896 5.12 208.896 5.12 7.168 0 14.336 0 20.48 0 9.216-79.872 34.816-184.32 103.424-242.688z"></path>
    <path class="color-11" d="M766.976 342.016c0 81.438-66.018 147.456-147.456 147.456s-147.456-66.018-147.456-147.456c0-81.438 66.018-147.456 147.456-147.456s147.456 66.018 147.456 147.456z"></path>
    <path
        class="color-11"
        d="M772.096 783.36c-43.008 17.408-139.264 31.744-167.936 34.816-29.696 2.048-55.296 2.048-67.584-29.696s-14.336-51.2 20.48-67.584c34.816-15.36 154.624-27.648 176.128-41.984s-31.744-75.776-31.744-75.776l94.208-35.84c-35.84-57.344-91.136-100.352-177.152-100.352-208.896 0-237.568 253.952-237.568 354.304 0 5.12 100.352 6.144 250.88 6.144 149.504 0 224.256-2.048 224.256-6.144 0-21.504-1.024-50.176-5.12-81.92-19.456 17.408-47.104 31.744-78.848 44.032z"></path>
    <path class="color-27" d="M699.392 616.448c-30.72-30.72-93.184-22.528-138.24 16.384s-56.32 96.256-25.6 125.952c30.72 30.72 93.184 22.528 138.24-16.384s56.32-95.232 25.6-125.952z"></path>
    <path
        class="color-11"
        d="M865.28 663.552c-12.288-78.848-109.568-141.312-109.568-141.312l-65.536 79.872c0 0 49.152 58.368 29.696 71.68s-133.12 25.6-164.864 39.936c-31.744 15.36-29.696 33.792-18.432 63.488s35.84 30.72 62.464 27.648c27.648-2.048 116.736-16.384 157.696-32.768 70.656-27.648 115.712-63.488 108.544-108.544z"></path>
    <path class="color-27" d="M784.384 538.624c-23.552-23.552-66.56-22.528-94.208 2.048-28.672 24.576-31.744 62.464-8.192 86.016s66.56 22.528 94.208-2.048c28.672-24.576 32.768-62.464 8.192-86.016z"></path>
</svg>
