<svg id="icon-obligations" viewBox="0 0 1024 1024" width="100%" height="100%" role="img">
    <title>obligations</title>
    <path class="color-5" d="M337.92 204.8h-122.88c-17.408 0-30.72 13.312-30.72 30.72v573.44c0 17.408 13.312 30.72 30.72 30.72h122.88c17.408 0 30.72-13.312 30.72-30.72v-573.44c0-17.408-13.312-30.72-30.72-30.72z"></path>
    <path class="color-6" d="M327.68 256h-102.4c-11.264 0-20.48 9.216-20.48 20.48v286.72c0 11.264 9.216 20.48 20.48 20.48h102.4c11.264 0 20.48-9.216 20.48-20.48v-286.72c0-11.264-9.216-20.48-20.48-20.48z"></path>
    <path class="color-3" d="M317.44 296.96h-81.92c-6.144 0-10.24 4.096-10.24 10.24s4.096 10.24 10.24 10.24h81.92c6.144 0 10.24-4.096 10.24-10.24s-4.096-10.24-10.24-10.24z"></path>
    <path class="color-3" d="M337.92 711.68c0 31.105-25.215 56.32-56.32 56.32s-56.32-25.215-56.32-56.32c0-31.105 25.215-56.32 56.32-56.32s56.32 25.215 56.32 56.32z"></path>
    <path class="color-6" d="M307.2 711.68c0 14.138-11.462 25.6-25.6 25.6s-25.6-11.462-25.6-25.6c0-14.138 11.462-25.6 25.6-25.6s25.6 11.462 25.6 25.6z"></path>
    <path class="color-5" d="M542.72 204.8h-122.88c-17.408 0-30.72 13.312-30.72 30.72v573.44c0 17.408 13.312 30.72 30.72 30.72h122.88c17.408 0 30.72-13.312 30.72-30.72v-573.44c0-17.408-13.312-30.72-30.72-30.72z"></path>
    <path class="color-6" d="M532.48 256h-102.4c-11.264 0-20.48 9.216-20.48 20.48v286.72c0 11.264 9.216 20.48 20.48 20.48h102.4c11.264 0 20.48-9.216 20.48-20.48v-286.72c0-11.264-9.216-20.48-20.48-20.48z"></path>
    <path class="color-3" d="M522.24 296.96h-81.92c-6.144 0-10.24 4.096-10.24 10.24s4.096 10.24 10.24 10.24h81.92c6.144 0 10.24-4.096 10.24-10.24s-4.096-10.24-10.24-10.24z"></path>
    <path class="color-3" d="M542.72 711.68c0 31.105-25.215 56.32-56.32 56.32s-56.32-25.215-56.32-56.32c0-31.105 25.215-56.32 56.32-56.32s56.32 25.215 56.32 56.32z"></path>
    <path class="color-6" d="M512 711.68c0 14.138-11.462 25.6-25.6 25.6s-25.6-11.462-25.6-25.6c0-14.138 11.462-25.6 25.6-25.6s25.6 11.462 25.6 25.6z"></path>
    <path class="color-5" d="M847.872 783.36l-79.872-568.32c-2.048-16.384-18.432-28.672-34.816-26.624l-121.856 17.408c-16.384 2.048-28.672 18.432-26.624 34.816l80.896 568.32c2.048 16.384 18.432 28.672 34.816 26.624l121.856-17.408c16.384-3.072 28.672-18.432 25.6-34.816z"></path>
    <path class="color-6" d="M793.6 542.72l-39.936-283.648c-2.048-11.264-12.288-19.456-23.552-17.408l-101.376 14.336c-11.264 2.048-19.456 12.288-17.408 23.552l39.936 283.648c2.048 11.264 12.288 19.456 23.552 17.408l101.376-14.336c11.264-2.048 18.432-12.288 17.408-23.552z"></path>
    <path class="color-3" d="M726.016 283.648l-80.896 11.264c-5.12 1.024-9.216 6.144-9.216 11.264 1.024 5.12 6.144 9.216 11.264 8.192l80.896-11.264c5.12-1.024 9.216-6.144 9.216-11.264-1.024-5.12-6.144-9.216-11.264-8.192z"></path>
    <path class="color-3" d="M804.864 698.368c0 31.105-25.215 56.32-56.32 56.32s-56.32-25.215-56.32-56.32c0-31.105 25.215-56.32 56.32-56.32s56.32 25.215 56.32 56.32z"></path>
    <path class="color-6" d="M774.144 698.368c0 14.138-11.462 25.6-25.6 25.6s-25.6-11.462-25.6-25.6c0-14.138 11.462-25.6 25.6-25.6s25.6 11.462 25.6 25.6z"></path>
</svg>
